<svg width="32" height="32" viewBox="0 0 32 32" fill="none" xmlns="http://www.w3.org/2000/svg">
<mask id="path-1-inside-1_2035_2061" fill="white">
<path d="M28.6201 2.23499e-10C29.91 4.90828e-10 30.5553 -0.000166351 31.0312 0.286133C31.3107 0.454405 31.5456 0.689251 31.7139 0.96875C32.0002 1.44468 32 2.08995 32 3.37988V28.6201C32 29.91 32.0002 30.5553 31.7139 31.0312C31.5456 31.3107 31.3107 31.5456 31.0312 31.7139C30.5553 32.0002 29.91 32 28.6201 32H3.37988C2.08995 32 1.44468 32.0002 0.96875 31.7139C0.689251 31.5456 0.454405 31.3107 0.286133 31.0312C-0.000166422 30.5553 4.86534e-10 29.91 2.23496e-10 28.6201V3.37988C4.90809e-10 2.08995 -0.000166351 1.44468 0.286133 0.96875C0.454405 0.689251 0.689251 0.454405 0.96875 0.286133C1.44468 -0.000166422 2.08995 4.86518e-10 3.37988 2.23499e-10H28.6201Z"/>
</mask>
<path d="M28.6201 2.23499e-10C29.91 4.90828e-10 30.5553 -0.000166351 31.0312 0.286133C31.3107 0.454405 31.5456 0.689251 31.7139 0.96875C32.0002 1.44468 32 2.08995 32 3.37988V28.6201C32 29.91 32.0002 30.5553 31.7139 31.0312C31.5456 31.3107 31.3107 31.5456 31.0312 31.7139C30.5553 32.0002 29.91 32 28.6201 32H3.37988C2.08995 32 1.44468 32.0002 0.96875 31.7139C0.689251 31.5456 0.454405 31.3107 0.286133 31.0312C-0.000166422 30.5553 4.86534e-10 29.91 2.23496e-10 28.6201V3.37988C4.90809e-10 2.08995 -0.000166351 1.44468 0.286133 0.96875C0.454405 0.689251 0.689251 0.454405 0.96875 0.286133C1.44468 -0.000166422 2.08995 4.86518e-10 3.37988 2.23499e-10H28.6201Z" fill="#999999"/>
<path d="M28.6201 2.23499e-10V-1V2.23499e-10ZM31.0312 0.286133L31.547 -0.570585L31.5467 -0.570769L31.0312 0.286133ZM31.7139 0.96875L32.5708 0.453271L32.5706 0.452964L31.7139 0.96875ZM32 3.37988H33H32ZM32 28.6201H33H32ZM31.7139 31.0312L32.5706 31.547L32.5708 31.5467L31.7139 31.0312ZM31.0312 31.7139L31.5467 32.5708L31.547 32.5706L31.0312 31.7139ZM28.6201 32V33V32ZM3.37988 32V33V32ZM0.96875 31.7139L0.452964 32.5706L0.453271 32.5708L0.96875 31.7139ZM0.286133 31.0312L-0.570769 31.5467L-0.570585 31.547L0.286133 31.0312ZM2.23496e-10 28.6201H-1H2.23496e-10ZM2.23496e-10 3.37988H-1H2.23496e-10ZM0.286133 0.96875L-0.570585 0.452964L-0.570769 0.453271L0.286133 0.96875ZM0.96875 0.286133L0.453271 -0.570769L0.452964 -0.570585L0.96875 0.286133ZM3.37988 2.23499e-10V-1V2.23499e-10ZM28.6201 2.23499e-10V1C29.2842 1 29.7131 1.00098 30.0378 1.03136C30.3479 1.06037 30.4596 1.10926 30.5158 1.14304L31.0312 0.286133L31.5467 -0.570769C31.127 -0.823291 30.678 -0.917475 30.2241 -0.959947C29.7846 -1.00106 29.246 -1 28.6201 -1V2.23499e-10ZM31.0312 0.286133L30.5155 1.14285C30.6552 1.22699 30.773 1.34479 30.8571 1.48454L31.7139 0.96875L32.5706 0.452964C32.3182 0.0337151 31.9663 -0.318176 31.547 -0.570585L31.0312 0.286133ZM31.7139 0.96875L30.857 1.48423C30.8907 1.54038 30.9396 1.65207 30.9686 1.96222C30.999 2.28686 31 2.7158 31 3.37988H32H33C33 2.75404 33.0011 2.21538 32.9599 1.77591C32.9175 1.32196 32.8233 0.873049 32.5708 0.453271L31.7139 0.96875ZM32 3.37988H31V28.6201H32H33V3.37988H32ZM32 28.6201H31C31 29.2842 30.999 29.7131 30.9686 30.0378C30.9396 30.3479 30.8907 30.4596 30.857 30.5158L31.7139 31.0312L32.5708 31.5467C32.8233 31.127 32.9175 30.678 32.9599 30.2241C33.0011 29.7846 33 29.246 33 28.6201H32ZM31.7139 31.0312L30.8571 30.5155C30.773 30.6552 30.6552 30.773 30.5155 30.8571L31.0312 31.7139L31.547 32.5706C31.9663 32.3182 32.3182 31.9663 32.5706 31.547L31.7139 31.0312ZM31.0312 31.7139L30.5158 30.857C30.4596 30.8907 30.3479 30.9396 30.0378 30.9686C29.7131 30.999 29.2842 31 28.6201 31V32V33C29.246 33 29.7846 33.0011 30.2241 32.9599C30.678 32.9175 31.127 32.8233 31.5467 32.5708L31.0312 31.7139ZM28.6201 32V31H3.37988V32V33H28.6201V32ZM3.37988 32V31C2.7158 31 2.28686 30.999 1.96222 30.9686C1.65207 30.9396 1.54038 30.8907 1.48423 30.857L0.96875 31.7139L0.453271 32.5708C0.873049 32.8233 1.32196 32.9175 1.77591 32.9599C2.21538 33.0011 2.75404 33 3.37988 33V32ZM0.96875 31.7139L1.48454 30.8571C1.34479 30.773 1.22699 30.6552 1.14285 30.5155L0.286133 31.0312L-0.570585 31.547C-0.318176 31.9663 0.0337151 32.3182 0.452964 32.5706L0.96875 31.7139ZM0.286133 31.0312L1.14304 30.5158C1.10926 30.4596 1.06037 30.3479 1.03136 30.0378C1.00098 29.7131 1 29.2842 1 28.6201H2.23496e-10H-1C-1 29.246 -1.00107 29.7846 -0.959947 30.2241C-0.917475 30.678 -0.823291 31.127 -0.570769 31.5467L0.286133 31.0312ZM2.23496e-10 28.6201H1V3.37988H2.23496e-10H-1V28.6201H2.23496e-10ZM2.23496e-10 3.37988H1C1 2.7158 1.00098 2.28686 1.03136 1.96222C1.06037 1.65207 1.10926 1.54038 1.14304 1.48423L0.286133 0.96875L-0.570769 0.453271C-0.823291 0.873049 -0.917475 1.32196 -0.959947 1.77591C-1.00106 2.21538 -1 2.75404 -1 3.37988H2.23496e-10ZM0.286133 0.96875L1.14285 1.48454C1.22699 1.34479 1.34479 1.22699 1.48454 1.14285L0.96875 0.286133L0.452964 -0.570585C0.0337151 -0.318176 -0.318176 0.0337151 -0.570585 0.452964L0.286133 0.96875ZM0.96875 0.286133L1.48423 1.14304C1.54038 1.10926 1.65207 1.06037 1.96222 1.03136C2.28686 1.00098 2.7158 1 3.37988 1V2.23499e-10V-1C2.75404 -1 2.21538 -1.00107 1.77591 -0.959947C1.32196 -0.917475 0.873049 -0.823291 0.453271 -0.570769L0.96875 0.286133ZM3.37988 2.23499e-10V1H28.6201V2.23499e-10V-1H3.37988V2.23499e-10Z" fill="#CCCCCC" mask="url(#path-1-inside-1_2035_2061)"/>
<path d="M16.0718 9L23.0718 21H9.0718L16.0718 9Z" fill="#666666"/>
</svg>
